<svg xmlns="http://www.w3.org/2000/svg" version="1.0" preserveAspectRatio="xMidYMid meet" viewBox="79.86 261.55 829.8 375.14">

<g transform="translate(0.000000,1024.000000) scale(0.100000,-0.100000)" fill="#000000" stroke="none">
<path d="M7315 7620 c-448 -40 -852 -258 -1110 -601 -93 -123 -227 -392 -209 -420 3 -5 13 -13 23 -18 15 -8 41 7 137 79 65 49 122 86 126 84 4 -3 26 -41 49 -85 66 -127 108 -138 143 -37 119 338 454 563 881 594 105 8 262 -8 366 -37 73 -20 195 -74 205 -90 3 -5 -18 -33 -45 -62 -54 -57 -62 -86 -35 -122 14 -19 29 -20 298 -24 317 -3 316 -4 316 67 0 43 -25 265 -45 402 -11 74 -18 98 -35 112 -29 23 -65 10 -111 -43 l-36 -41 -49 35 c-113 81 -318 160 -494 191 -112 19 -263 26 -375 16z"/>
<path d="M8614 7040 c-22 -9 -40 -48 -69 -152 -18 -66 -38 -81 -120 -93 -107 -16 -119 -43 -60 -135 134 -208 166 -370 124 -625 -24 -140 -116 -363 -199 -479 l-31 -43 78 -104 c43 -57 96 -132 118 -166 22 -35 43 -63 47 -63 9 0 97 100 153 175 100 134 206 385 252 595 25 120 26 448 0 570 -41 195 -131 402 -210 485 -46 47 -49 49 -83 35z"/>
<path d="M3465 6925 c-85 -19 -190 -61 -260 -103 -85 -52 -222 -191 -290 -296 -170 -260 -245 -493 -245 -755 0 -230 56 -379 194 -517 122 -121 252 -182 436 -205 139 -16 254 12 333 81 l34 30 6 -80 c6 -95 27 -137 80 -163 46 -23 79 -14 143 39 64 52 78 108 72 286 -5 123 -8 143 -32 192 -15 31 -39 65 -53 75 -53 43 -142 36 -211 -16 -18 -13 -58 -36 -90 -51 -50 -23 -69 -27 -157 -27 -82 1 -111 5 -160 24 -81 33 -163 115 -196 196 -22 55 -24 74 -24 220 1 187 16 256 90 408 78 160 177 264 292 307 213 80 305 -157 122 -314 -70 -60 -175 -96 -280 -96 -70 0 -101 -22 -119 -84 -25 -92 14 -164 103 -191 29 -9 90 -15 145 -15 302 0 547 219 609 544 18 97 13 218 -14 290 -23 62 -96 144 -162 179 -96 53 -242 69 -366 42z"/>
<path d="M4780 6925 c-267 -57 -453 -212 -515 -429 -13 -43 -16 -83 -13 -146 5 -114 44 -198 132 -285 91 -91 164 -125 440 -210 151 -46 212 -74 260 -115 47 -42 66 -79 66 -130 0 -117 -97 -192 -250 -193 -130 -1 -254 49 -374 152 -121 102 -236 140 -301 97 -61 -40 -101 -218 -92 -412 6 -120 19 -165 62 -204 20 -19 38 -25 72 -25 38 0 49 5 73 32 16 18 37 55 47 82 10 28 21 51 25 51 4 0 23 -11 43 -25 53 -35 187 -85 280 -102 105 -20 272 -13 375 17 368 105 547 455 398 777 -12 28 -53 79 -94 120 -93 93 -185 137 -408 198 -200 54 -253 75 -296 120 -27 28 -34 44 -38 87 -3 44 0 59 20 88 36 53 98 82 182 88 143 9 277 -39 393 -142 71 -62 90 -71 141 -61 170 31 293 268 238 457 -28 96 -88 141 -165 122 -28 -7 -42 -19 -66 -60 l-30 -51 -61 34 c-33 18 -96 42 -140 54 -104 27 -312 34 -404 14z"/>
<path d="M2160 6900 c-36 -10 -87 -31 -115 -46 -70 -40 -207 -178 -239 -242 -15 -30 -30 -51 -33 -48 -3 3 -9 26 -14 52 -48 256 -289 353 -399 161 -39 -67 -38 -99 6 -227 34 -98 37 -115 41 -261 6 -159 -3 -311 -38 -634 -38 -353 -37 -373 17 -457 82 -128 291 -118 369 17 30 51 33 73 40 230 23 573 67 757 220 911 111 112 187 130 340 80 136 -44 202 -33 281 49 44 45 53 60 59 103 8 63 0 104 -31 158 -82 143 -304 211 -504 154z"/>
<path d="M879 6697 c-104 -70 -108 -206 -7 -280 40 -30 116 -34 165 -8 120 61 126 221 10 291 -46 28 -124 27 -168 -3z"/>
<path d="M6123 6513 c-37 -25 -96 -67 -130 -92 -35 -25 -106 -77 -158 -115 -110 -80 -125 -105 -80 -143 23 -20 37 -24 78 -22 66 4 74 -9 87 -136 22 -210 53 -322 137 -490 56 -111 89 -160 166 -248 173 -196 418 -338 713 -413 318 -80 623 -70 967 30 48 14 90 26 92 26 3 0 -8 26 -24 59 -36 70 -132 199 -193 258 l-43 42 -135 -26 c-178 -34 -387 -36 -530 -6 -242 52 -445 176 -581 356 -104 138 -155 275 -161 439 l-3 83 73 5 c79 5 102 20 102 66 0 19 -189 293 -243 352 -30 32 -58 27 -134 -25z"/>
<path d="M903 5691 c-95 -44 -130 -169 -67 -248 43 -54 88 -75 147 -70 86 7 138 64 145 157 4 53 1 65 -22 101 -29 43 -91 79 -136 79 -14 0 -44 -9 -67 -19z"/>
<path d="M7857 5579 c-44 -23 -94 -88 -103 -135 -10 -56 13 -104 86 -176 71 -71 177 -222 229 -327 67 -135 166 -247 302 -338 147 -99 242 -208 297 -339 23 -56 42 -155 42 -226 0 -56 7 -76 31 -88 26 -14 58 4 94 51 16 22 33 38 38 36 4 -1 19 -34 31 -72 26 -76 48 -99 86 -90 39 10 66 41 84 98 40 121 26 289 -36 450 -70 181 -157 294 -354 458 -145 121 -188 168 -288 324 -128 197 -255 337 -341 376 -55 25 -148 24 -198 -2z m212 -244 c74 -80 124 -175 91 -175 -5 0 -23 21 -41 48 -18 26 -54 72 -80 103 -27 31 -45 59 -42 63 14 14 32 4 72 -39z m285 -387 c25 -35 73 -85 106 -112 40 -33 57 -53 50 -60 -23 -23 -143 79 -194 166 -23 39 -28 68 -12 68 2 0 24 -28 50 -62z m402 -365 c56 -56 152 -247 140 -278 -10 -28 -21 -15 -48 58 -16 41 -51 103 -83 145 -30 40 -55 78 -55 83 0 15 27 10 46 -8z"/>
</g>
</svg>